<svg width="20" height="20" viewBox="0 0 20 20" fill="none" xmlns="http://www.w3.org/2000/svg">
<path d="M0.833984 0.833374H4.16732L6.40065 11.9917C6.47685 12.3754 6.68557 12.72 6.99027 12.9653C7.29497 13.2106 7.67623 13.3409 8.06732 13.3334H16.1673C16.5584 13.3409 16.9397 13.2106 17.2444 12.9653C17.5491 12.72 17.7578 12.3754 17.834 11.9917L19.1673 5.00004H5.00065M8.33398 17.5C8.33398 17.9603 7.96089 18.3334 7.50065 18.3334C7.04041 18.3334 6.66732 17.9603 6.66732 17.5C6.66732 17.0398 7.04041 16.6667 7.50065 16.6667C7.96089 16.6667 8.33398 17.0398 8.33398 17.5ZM17.5007 17.5C17.5007 17.9603 17.1276 18.3334 16.6673 18.3334C16.2071 18.3334 15.834 17.9603 15.834 17.5C15.834 17.0398 16.2071 16.6667 16.6673 16.6667C17.1276 16.6667 17.5007 17.0398 17.5007 17.5Z" stroke="#ffffff" stroke-width="2" stroke-linecap="round" stroke-linejoin="round"/>
</svg>