<svg width="50" height="50" viewBox="0 0 50 50" fill="none" xmlns="http://www.w3.org/2000/svg">
<path d="M33.334 33.3333V6.25H2.08398V33.3333H33.334ZM33.334 33.3333H47.9173V22.9167L41.6673 16.6667H33.334L33.334 33.3333ZM16.6673 38.5417C16.6673 41.4182 14.3355 43.75 11.459 43.75C8.5825 43.75 6.25065 41.4182 6.25065 38.5417C6.25065 35.6652 8.5825 33.3333 11.459 33.3333C14.3355 33.3333 16.6673 35.6652 16.6673 38.5417ZM43.7507 38.5417C43.7507 41.4182 41.4188 43.75 38.5423 43.75C35.6658 43.75 33.334 41.4182 33.334 38.5417C33.334 35.6652 35.6658 33.3333 38.5423 33.3333C41.4188 33.3333 43.7507 35.6652 43.7507 38.5417Z" stroke="#1E1E1E" stroke-width="3" stroke-linecap="round" stroke-linejoin="round"/>
</svg>